# xmcd CD database file
#
# Track frame offsets:
#	150
#	29770
#	60263
#	68087
#	86512
#	115829
#	142665
#	159191
#	191786
#	205868
#	212466
#
# Disc length: 3265 seconds
#
# Revision: 0
# Processed by: cddbd v1.5.2PL0 Copyright (c) Steve Scherf et al.
# Submitted via: CDex 1.51
#
DISCID=8d0cbf0b
DTITLE=Night Flight - Kalimba Butterfly
DYEAR=1998
DGENRE=Jazz
TTITLE0=Kalimba Butterfly
TTITLE1=Spring Evening Serenade
TTITLE2=Green
TTITLE3=Virginia's
TTITLE4=Just A Little Faith
TTITLE5=Song For Winifred
TTITLE6=Ace's
TTITLE7=Seaside Sunny Morning
TTITLE8=Empty Jar
TTITLE9=Shepherd's Song
TTITLE10=Earth Song
EXTD=YEAR: 1998
EXTT0=
EXTT1=
EXTT2=
EXTT3=
EXTT4=
EXTT5=
EXTT6=
EXTT7=
EXTT8=
EXTT9=
EXTT10=
PLAYORDER=
